P2
13 24
255
   0   0   0   0   0 255 255 255 255 255 255 255 255
   0   0   0   0 255 255 255 255 255 255 255 255 255
   0   0   0 255 255 255 255 255 255 255 255 255   0
   0   0   0 255 255 255   0   0   0   0   0   0   0
   0   0 255 255   0   0   0   0   0   0   0   0   0
   0   0 255 255   0   0   0   0   0   0   0   0   0
   0 255 255 255 255 255   0   0   0   0   0   0   0
   0 255 255 255 255 255 255 255 255   0   0   0   0
 255 255 255 255 255 255 255 255 255 255   0   0   0
   0 255 255 255 255 255 255 255 255 255 255   0   0
   0   0   0   0   0 255 255 255 255 255 255 255   0
   0   0   0   0   0   0   0 255 255 255 255 255 255
   0   0   0   0   0   0   0   0 255 255 255 255 255
   0   0   0   0   0   0   0   0   0 255 255 255 255
   0   0   0   0   0   0   0   0   0   0 255 255 255
   0   0   0   0   0   0   0   0   0   0 255 255 255
   0   0   0   0   0   0   0   0   0   0 255 255 255
   0   0   0   0   0   0   0   0   0   0 255 255 255
   0   0   0   0   0   0   0   0   0   0 255 255 255
   0   0   0   0   0   0   0   0   0   0 255 255   0
   0 255 255   0   0   0   0   0   0 255 255 255   0
 255 255 255 255 255 255 255 255 255 255 255   0   0
 255 255 255 255 255 255 255 255 255   0   0   0   0
   0 255 255 255 255 255 255   0   0   0   0   0   0
