P2
14 23
255
   0   0   0 255 255 255 255 255 255 255   0   0   0   0
   0 255 255 255 255 255 255 255 255 255 255 255   0   0
 255 255 255 255 255 255 255 255 255 255 255 255   0   0
 255 255 255   0   0   0   0 255 255 255 255 255 255   0
 255 255   0   0   0   0   0   0 255 255 255 255 255   0
   0   0   0   0   0   0   0   0   0 255 255 255 255   0
   0   0   0   0   0   0   0   0   0 255 255 255 255   0
   0   0   0   0   0   0   0   0   0 255 255 255 255   0
   0   0   0   0   0   0   0   0   0 255 255 255 255   0
   0   0   0   0   0   0   0   0   0 255 255 255   0   0
   0   0   0   0   0   0   0   0 255 255 255 255   0   0
   0   0   0   0   0   0   0   0 255 255 255   0   0   0
   0   0   0   0   0   0   0 255 255 255 255   0   0   0
   0   0   0   0   0   0 255 255 255 255   0   0   0   0
   0   0   0   0   0 255 255 255 255   0   0   0   0   0
   0   0   0   0   0 255 255 255   0   0   0   0   0   0
   0   0   0   0 255 255 255 255   0   0   0   0   0   0
   0   0   0 255 255 255 255   0   0   0   0   0   0   0
   0   0 255 255 255 255   0   0   0   0   0   0   0   0
   0 255 255 255 255   0 255 255 255 255 255 255 255 255
 255 255 255 255 255 255 255 255 255 255 255 255 255 255
 255 255 255 255 255 255 255 255 255 255 255 255 255 255
 255 255 255 255 255 255 255 255 255 255 255 255 255 255
